<svg width="210" height="361" viewBox="0 0 210 361" fill="none" xmlns="http://www.w3.org/2000/svg">
<g clip-path="url(#clip0_1_2)">
<rect width="210" height="361" fill="white"/>
<rect y="130.361" width="10" height="10.0278" fill="black"/>
<rect y="140.389" width="10" height="10.0278" fill="black"/>
<rect x="10" y="110.306" width="10" height="10.0278" fill="black"/>
<rect x="10" y="120.333" width="10" height="10.0278" fill="black"/>
<rect x="10" y="130.361" width="10" height="10.0278" fill="#5EA547"/>
<rect x="10" y="140.389" width="10" height="10.0278" fill="black"/>
<rect x="20" y="100.278" width="10" height="10.0278" fill="black"/>
<rect x="20" y="110.306" width="10" height="10.0278" fill="#5EA547"/>
<rect x="20" y="120.333" width="10" height="10.0278" fill="#5EA547"/>
<rect x="20" y="130.361" width="10" height="10.0278" fill="#8ED133"/>
<rect x="20" y="140.389" width="10" height="10.0278" fill="black"/>
<rect x="30" y="90.25" width="10" height="10.0278" fill="black"/>
<rect x="30" y="100.278" width="10" height="10.0278" fill="#5EA547"/>
<rect x="30" y="110.306" width="10" height="10.0278" fill="#5EA547"/>
<rect x="30" y="120.333" width="10" height="10.0278" fill="#8ED133"/>
<rect x="30" y="130.361" width="10" height="10.0278" fill="#8ED133"/>
<rect x="30" y="140.389" width="10" height="10.0278" fill="black"/>
<rect x="30" y="150.417" width="10" height="10.0278" fill="black"/>
<rect x="30" y="160.444" width="10" height="10.0278" fill="black"/>
<rect x="30" y="170.472" width="10" height="10.0278" fill="black"/>
<rect x="30" y="190.528" width="10" height="10.0278" fill="black"/>
<rect x="30" y="200.556" width="10" height="10.0278" fill="black"/>
<rect x="30" y="210.583" width="10" height="10.0278" fill="black"/>
<rect x="30" y="220.611" width="10" height="10.0278" fill="black"/>
<rect x="30" y="230.639" width="10" height="10.0278" fill="black"/>
<rect x="40" width="10" height="10.0278" fill="black"/>
<rect x="40" y="10.0278" width="10" height="10.0278" fill="black"/>
<rect x="40" y="20.0555" width="10" height="10.0278" fill="black"/>
<rect x="40" y="80.2222" width="10" height="10.0278" fill="black"/>
<rect x="40" y="90.25" width="10" height="10.0278" fill="#4F713B"/>
<rect x="40" y="100.278" width="10" height="10.0278" fill="#4F713B"/>
<rect x="40" y="110.306" width="10" height="10.0278" fill="#8ED133"/>
<rect x="40" y="120.333" width="10" height="10.0278" fill="#8ED133"/>
<rect x="40" y="130.361" width="10" height="10.0278" fill="#8ED133"/>
<rect x="40" y="140.389" width="10" height="10.0278" fill="black"/>
<rect x="40" y="150.417" width="10" height="10.0278" fill="#4C4185"/>
<rect x="40" y="160.444" width="10" height="10.0278" fill="#4C4185"/>
<rect x="40" y="170.472" width="10" height="10.0278" fill="#4C4185"/>
<rect x="40" y="190.528" width="10" height="10.0278" fill="#4C4185"/>
<rect x="40" y="200.556" width="10" height="10.0278" fill="#4C4185"/>
<rect x="40" y="210.583" width="10" height="10.0278" fill="#4C4185"/>
<rect x="40" y="220.611" width="10" height="10.0278" fill="#4C4185"/>
<rect x="40" y="230.639" width="10" height="10.0278" fill="#4C4185"/>
<rect x="40" y="240.667" width="10" height="10.0278" fill="black"/>
<rect x="40" y="250.694" width="10" height="10.0278" fill="black"/>
<rect x="40" y="260.722" width="10" height="10.0278" fill="black"/>
<rect x="40" y="270.75" width="10" height="10.0278" fill="black"/>
<rect x="40" y="280.778" width="10" height="10.0278" fill="black"/>
<rect x="50" width="10" height="10.0278" fill="black"/>
<rect x="50" y="10.0278" width="10" height="10.0278" fill="#5EA547"/>
<rect x="50" y="20.0555" width="10" height="10.0278" fill="#4F713B"/>
<rect x="50" y="30.0833" width="10" height="10.0278" fill="black"/>
<rect x="50" y="70.1944" width="10" height="10.0278" fill="black"/>
<rect x="50" y="80.2222" width="10" height="10.0278" fill="#4F713B"/>
<rect x="50" y="90.25" width="10" height="10.0278" fill="#4F713B"/>
<rect x="50" y="100.278" width="10" height="10.0278" fill="#5EA547"/>
<rect x="50" y="110.306" width="10" height="10.0278" fill="#8ED133"/>
<rect x="50" y="120.333" width="10" height="10.0278" fill="#8ED133"/>
<rect x="50" y="130.361" width="10" height="10.0278" fill="black"/>
<rect x="50" y="140.389" width="10" height="10.0278" fill="#4C4185"/>
<rect x="50" y="150.417" width="10" height="10.0278" fill="#4C4185"/>
<rect x="50" y="220.611" width="10" height="10.0278" fill="#4C4185"/>
<rect x="50" y="230.639" width="10" height="10.0278" fill="#4C4185"/>
<rect x="50" y="240.667" width="10" height="10.0278" fill="#4C4185"/>
<rect x="50" y="250.694" width="10" height="10.0278" fill="#4C4185"/>
<rect x="50" y="260.722" width="10" height="10.0278" fill="#4C4185"/>
<rect x="50" y="270.75" width="10" height="10.0278" fill="#4C4185"/>
<rect x="50" y="280.778" width="10" height="10.0278" fill="#4C4185"/>
<rect x="50" y="290.806" width="10" height="10.0278" fill="black"/>
<rect x="50" y="300.833" width="10" height="10.0278" fill="black"/>
<rect x="60" width="10" height="10.0278" fill="black"/>
<rect x="60" y="10.0278" width="10" height="10.0278" fill="#5EA547"/>
<rect x="60" y="20.0555" width="10" height="10.0278" fill="#5EA547"/>
<rect x="60" y="30.0833" width="10" height="10.0278" fill="#4F713B"/>
<rect x="60" y="40.1111" width="10" height="10.0278" fill="black"/>
<rect x="60" y="70.1944" width="10" height="10.0278" fill="#4F713B"/>
<rect x="60" y="80.2222" width="10" height="10.0278" fill="#4F713B"/>
<rect x="60" y="90.25" width="10" height="10.0278" fill="#5EA547"/>
<rect x="60" y="100.278" width="10" height="10.0278" fill="#5EA547"/>
<rect x="60" y="110.306" width="10" height="10.0278" fill="#5EA547"/>
<rect x="60" y="120.333" width="10" height="10.0278" fill="black"/>
<rect x="60" y="130.361" width="10" height="10.0278" fill="#4C4185"/>
<rect x="60" y="140.389" width="10" height="10.0278" fill="#4C4185"/>
<rect x="60" y="150.417" width="10" height="10.0278" fill="#4C4185"/>
<rect x="60" y="170.472" width="10" height="10.0278" fill="white"/>
<rect x="60" y="180.5" width="10" height="10.0278" fill="white"/>
<rect x="60" y="190.528" width="10" height="10.0278" fill="white"/>
<rect x="60" y="200.556" width="10" height="10.0278" fill="white"/>
<rect x="60" y="220.611" width="10" height="10.0278" fill="#4C4185"/>
<rect x="60" y="230.639" width="10" height="10.0278" fill="#4C4185"/>
<rect x="60" y="240.667" width="10" height="10.0278" fill="#4C4185"/>
<rect x="60" y="250.694" width="10" height="10.0278" fill="#4C4185"/>
<rect x="60" y="260.722" width="10" height="10.0278" fill="#4C4185"/>
<rect x="60" y="270.75" width="10" height="10.0278" fill="#4C4185"/>
<rect x="60" y="280.778" width="10" height="10.0278" fill="#4C4185"/>
<rect x="60" y="290.806" width="10" height="10.0278" fill="#4C4185"/>
<rect x="60" y="300.833" width="10" height="10.0278" fill="#4C4185"/>
<rect x="60" y="310.861" width="10" height="10.0278" fill="black"/>
<rect x="70" y="10.0278" width="10" height="10.0278" fill="black"/>
<rect x="70" y="20.0555" width="10" height="10.0278" fill="#5EA547"/>
<rect x="70" y="30.0833" width="10" height="10.0278" fill="#5EA547"/>
<rect x="70" y="40.1111" width="10" height="10.0278" fill="#4F713B"/>
<rect x="70" y="50.1389" width="10" height="10.0278" fill="black"/>
<rect x="70" y="60.1667" width="10" height="10.0278" fill="black"/>
<rect x="70" y="70.1944" width="10" height="10.0278" fill="#4F713B"/>
<rect x="70" y="80.2222" width="10" height="10.0278" fill="#8ED133"/>
<rect x="70" y="90.25" width="10" height="10.0278" fill="#8ED133"/>
<rect x="70" y="100.278" width="10" height="10.0278" fill="#8ED133"/>
<rect x="70" y="110.306" width="10" height="10.0278" fill="black"/>
<rect x="70" y="120.333" width="10" height="10.0278" fill="#4C4185"/>
<rect x="70" y="130.361" width="10" height="10.0278" fill="#4C4185"/>
<rect x="70" y="140.389" width="10" height="10.0278" fill="#4C4185"/>
<rect x="70" y="150.417" width="10" height="10.0278" fill="#4C4185"/>
<rect x="70" y="170.472" width="10" height="10.0278" fill="white"/>
<rect x="70" y="180.5" width="10" height="10.0278" fill="white"/>
<rect x="70" y="190.528" width="10" height="10.0278" fill="white"/>
<rect x="70" y="200.556" width="10" height="10.0278" fill="white"/>
<rect x="70" y="220.611" width="10" height="10.0278" fill="#7761C3"/>
<rect x="70" y="230.639" width="10" height="10.0278" fill="#7761C3"/>
<rect x="70" y="240.667" width="10" height="10.0278" fill="#7761C3"/>
<rect x="70" y="250.694" width="10" height="10.0278" fill="#7761C3"/>
<rect x="70" y="260.722" width="10" height="10.0278" fill="#7761C3"/>
<rect x="70" y="270.75" width="10" height="10.0278" fill="#4C4185"/>
<rect x="70" y="280.778" width="10" height="10.0278" fill="#4C4185"/>
<rect x="70" y="290.806" width="10" height="10.0278" fill="#4C4185"/>
<rect x="70" y="300.833" width="10" height="10.0278" fill="#4C4185"/>
<rect x="70" y="310.861" width="10" height="10.0278" fill="#4C4185"/>
<rect x="70" y="320.889" width="10" height="10.0278" fill="black"/>
<rect x="80" y="20.0555" width="10" height="10.0278" fill="black"/>
<rect x="80" y="30.0833" width="10" height="10.0278" fill="black"/>
<rect x="80" y="40.1111" width="10" height="10.0278" fill="#5EA547"/>
<rect x="80" y="50.1389" width="10" height="10.0278" fill="#5EA547"/>
<rect x="80" y="60.1667" width="10" height="10.0278" fill="#4F713B"/>
<rect x="80" y="70.1944" width="10" height="10.0278" fill="#8ED133"/>
<rect x="80" y="80.2222" width="10" height="10.0278" fill="#8ED133"/>
<rect x="80" y="90.25" width="10" height="10.0278" fill="#8ED133"/>
<rect x="80" y="100.278" width="10" height="10.0278" fill="#8ED133"/>
<rect x="80" y="110.306" width="10" height="10.0278" fill="#8ED133"/>
<rect x="80" y="120.333" width="10" height="10.0278" fill="#8ED133"/>
<rect x="80" y="130.361" width="10" height="10.0278" fill="black"/>
<rect x="80" y="140.389" width="10" height="10.0278" fill="#4C4185"/>
<rect x="80" y="150.417" width="10" height="10.0278" fill="#4C4185"/>
<rect x="80" y="170.472" width="10" height="10.0278" fill="black"/>
<rect x="80" y="180.5" width="10" height="10.0278" fill="black"/>
<rect x="80" y="190.528" width="10" height="10.0278" fill="black"/>
<rect x="80" y="200.556" width="10" height="10.0278" fill="black"/>
<rect x="80" y="220.611" width="10" height="10.0278" fill="#7761C3"/>
<rect x="80" y="230.639" width="10" height="10.0278" fill="#7761C3"/>
<rect x="80" y="240.667" width="10" height="10.0278" fill="#7761C3"/>
<rect x="80" y="250.694" width="10" height="10.0278" fill="#7761C3"/>
<rect x="80" y="260.722" width="10" height="10.0278" fill="#7761C3"/>
<rect x="80" y="270.75" width="10" height="10.0278" fill="#7761C3"/>
<rect x="80" y="280.778" width="10" height="10.0278" fill="#4C4185"/>
<rect x="80" y="290.806" width="10" height="10.0278" fill="#4C4185"/>
<rect x="80" y="300.833" width="10" height="10.0278" fill="#4C4185"/>
<rect x="80" y="310.861" width="10" height="10.0278" fill="#4C4185"/>
<rect x="80" y="320.889" width="10" height="10.0278" fill="#4C4185"/>
<rect x="80" y="330.917" width="10" height="10.0278" fill="black"/>
<rect x="90" y="40.1111" width="10" height="10.0278" fill="black"/>
<rect x="90" y="50.1389" width="10" height="10.0278" fill="black"/>
<rect x="90" y="60.1667" width="10" height="10.0278" fill="black"/>
<rect x="90" y="70.1944" width="10" height="10.0278" fill="#5EA547"/>
<rect x="90" y="80.2222" width="10" height="10.0278" fill="#4F713B"/>
<rect x="90" y="90.25" width="10" height="10.0278" fill="#4F713B"/>
<rect x="90" y="100.278" width="10" height="10.0278" fill="#5EA547"/>
<rect x="90" y="110.306" width="10" height="10.0278" fill="#8ED133"/>
<rect x="90" y="120.333" width="10" height="10.0278" fill="#8ED133"/>
<rect x="90" y="130.361" width="10" height="10.0278" fill="#8ED133"/>
<rect x="90" y="140.389" width="10" height="10.0278" fill="black"/>
<rect x="90" y="150.417" width="10" height="10.0278" fill="#4C4185"/>
<rect x="90" y="170.472" width="10" height="10.0278" fill="black"/>
<rect x="90" y="180.5" width="10" height="10.0278" fill="black"/>
<rect x="90" y="190.528" width="10" height="10.0278" fill="black"/>
<rect x="90" y="200.556" width="10" height="10.0278" fill="black"/>
<rect x="90" y="220.611" width="10" height="10.0278" fill="#7761C3"/>
<rect x="90" y="230.639" width="10" height="10.0278" fill="#7761C3"/>
<rect x="90" y="240.667" width="10" height="10.0278" fill="#7761C3"/>
<rect x="90" y="250.694" width="10" height="10.0278" fill="#7761C3"/>
<rect x="90" y="260.722" width="10" height="10.0278" fill="#7761C3"/>
<rect x="90" y="270.75" width="10" height="10.0278" fill="#7761C3"/>
<rect x="90" y="280.778" width="10" height="10.0278" fill="#7761C3"/>
<rect x="90" y="290.806" width="10" height="10.0278" fill="#4C4185"/>
<rect x="90" y="300.833" width="10" height="10.0278" fill="#4C4185"/>
<rect x="90" y="310.861" width="10" height="10.0278" fill="#4C4185"/>
<rect x="90" y="320.889" width="10" height="10.0278" fill="#4C4185"/>
<rect x="90" y="330.917" width="10" height="10.0278" fill="#4C4185"/>
<rect x="90" y="340.944" width="10" height="10.0278" fill="black"/>
<rect x="100" y="70.1944" width="10" height="10.0278" fill="black"/>
<rect x="100" y="80.2222" width="10" height="10.0278" fill="#8ED133"/>
<rect x="100" y="90.25" width="10" height="10.0278" fill="#8ED133"/>
<rect x="100" y="100.278" width="10" height="10.0278" fill="#8ED133"/>
<rect x="100" y="110.306" width="10" height="10.0278" fill="#8ED133"/>
<rect x="100" y="120.333" width="10" height="10.0278" fill="black"/>
<rect x="100" y="130.361" width="10" height="10.0278" fill="black"/>
<rect x="100" y="140.389" width="10" height="10.0278" fill="black"/>
<rect x="100" y="150.417" width="10" height="10.0278" fill="#4C4185"/>
<rect x="100" y="220.611" width="10" height="10.0278" fill="#7761C3"/>
<rect x="100" y="230.639" width="10" height="10.0278" fill="#7761C3"/>
<rect x="100" y="240.667" width="10" height="10.0278" fill="#7761C3"/>
<rect x="100" y="250.694" width="10" height="10.0278" fill="#7761C3"/>
<rect x="100" y="260.722" width="10" height="10.0278" fill="#7761C3"/>
<rect x="100" y="270.75" width="10" height="10.0278" fill="#7761C3"/>
<rect x="100" y="280.778" width="10" height="10.0278" fill="#7761C3"/>
<rect x="100" y="290.806" width="10" height="10.0278" fill="#7761C3"/>
<rect x="100" y="300.833" width="10" height="10.0278" fill="#4C4185"/>
<rect x="100" y="310.861" width="10" height="10.0278" fill="#4C4185"/>
<rect x="100" y="320.889" width="10" height="10.0278" fill="#4C4185"/>
<rect x="100" y="330.917" width="10" height="10.0278" fill="#4C4185"/>
<rect x="100" y="340.944" width="10" height="10.0278" fill="black"/>
<rect x="110" y="70.1944" width="10" height="10.0278" fill="black"/>
<rect x="110" y="80.2222" width="10" height="10.0278" fill="#8ED133"/>
<rect x="110" y="90.25" width="10" height="10.0278" fill="#8ED133"/>
<rect x="110" y="100.278" width="10" height="10.0278" fill="#8ED133"/>
<rect x="110" y="110.306" width="10" height="10.0278" fill="black"/>
<rect x="110" y="120.333" width="10" height="10.0278" fill="#4C4185"/>
<rect x="110" y="130.361" width="10" height="10.0278" fill="#4C4185"/>
<rect x="110" y="140.389" width="10" height="10.0278" fill="#4C4185"/>
<rect x="110" y="150.417" width="10" height="10.0278" fill="#7761C3"/>
<rect x="110" y="160.444" width="10" height="10.0278" fill="#7761C3"/>
<rect x="110" y="170.472" width="10" height="10.0278" fill="#7761C3"/>
<rect x="110" y="190.528" width="10" height="10.0278" fill="#7761C3"/>
<rect x="110" y="200.556" width="10" height="10.0278" fill="#7761C3"/>
<rect x="110" y="210.583" width="10" height="10.0278" fill="#7761C3"/>
<rect x="110" y="220.611" width="10" height="10.0278" fill="#7761C3"/>
<rect x="110" y="230.639" width="10" height="10.0278" fill="#7761C3"/>
<rect x="110" y="240.667" width="10" height="10.0278" fill="#7761C3"/>
<rect x="110" y="250.694" width="10" height="10.0278" fill="#7761C3"/>
<rect x="110" y="260.722" width="10" height="10.0278" fill="#7761C3"/>
<rect x="110" y="270.75" width="10" height="10.0278" fill="#7761C3"/>
<rect x="110" y="280.778" width="10" height="10.0278" fill="#7761C3"/>
<rect x="110" y="290.806" width="10" height="10.0278" fill="#7761C3"/>
<rect x="110" y="300.833" width="10" height="10.0278" fill="#7761C3"/>
<rect x="110" y="310.861" width="10" height="10.0278" fill="#4C4185"/>
<rect x="110" y="320.889" width="10" height="10.0278" fill="#4C4185"/>
<rect x="110" y="330.917" width="10" height="10.0278" fill="#4C4185"/>
<rect x="110" y="340.944" width="10" height="10.0278" fill="#4C4185"/>
<rect x="110" y="350.972" width="10" height="10.0278" fill="black"/>
<rect x="120" y="80.2222" width="10" height="10.0278" fill="black"/>
<rect x="120" y="90.25" width="10" height="10.0278" fill="#4F713B"/>
<rect x="120" y="100.278" width="10" height="10.0278" fill="#4F713B"/>
<rect x="120" y="110.306" width="10" height="10.0278" fill="#4C4185"/>
<rect x="120" y="120.333" width="10" height="10.0278" fill="#4C4185"/>
<rect x="120" y="130.361" width="10" height="10.0278" fill="#4C4185"/>
<rect x="120" y="140.389" width="10" height="10.0278" fill="#4C4185"/>
<rect x="120" y="150.417" width="10" height="10.0278" fill="#7761C3"/>
<rect x="120" y="220.611" width="10" height="10.0278" fill="#7761C3"/>
<rect x="120" y="230.639" width="10" height="10.0278" fill="#7761C3"/>
<rect x="120" y="240.667" width="10" height="10.0278" fill="#7761C3"/>
<rect x="120" y="250.694" width="10" height="10.0278" fill="#7761C3"/>
<rect x="120" y="260.722" width="10" height="10.0278" fill="#7761C3"/>
<rect x="120" y="270.75" width="10" height="10.0278" fill="#7761C3"/>
<rect x="120" y="280.778" width="10" height="10.0278" fill="#7761C3"/>
<rect x="120" y="290.806" width="10" height="10.0278" fill="#7761C3"/>
<rect x="120" y="300.833" width="10" height="10.0278" fill="#7761C3"/>
<rect x="120" y="310.861" width="10" height="10.0278" fill="#4C4185"/>
<rect x="120" y="320.889" width="10" height="10.0278" fill="#4C4185"/>
<rect x="120" y="330.917" width="10" height="10.0278" fill="#4C4185"/>
<rect x="120" y="340.944" width="10" height="10.0278" fill="#4C4185"/>
<rect x="120" y="350.972" width="10" height="10.0278" fill="black"/>
<rect x="130" y="90.25" width="10" height="10.0278" fill="black"/>
<rect x="130" y="100.278" width="10" height="10.0278" fill="#5EA547"/>
<rect x="130" y="110.306" width="10" height="10.0278" fill="#4F713B"/>
<rect x="130" y="120.333" width="10" height="10.0278" fill="black"/>
<rect x="130" y="130.361" width="10" height="10.0278" fill="black"/>
<rect x="130" y="140.389" width="10" height="10.0278" fill="black"/>
<rect x="130" y="150.417" width="10" height="10.0278" fill="#4C4185"/>
<rect x="130" y="170.472" width="10" height="10.0278" fill="white"/>
<rect x="130" y="180.5" width="10" height="10.0278" fill="white"/>
<rect x="130" y="190.528" width="10" height="10.0278" fill="white"/>
<rect x="130" y="200.556" width="10" height="10.0278" fill="white"/>
<rect x="130" y="220.611" width="10" height="10.0278" fill="#7761C3"/>
<rect x="130" y="230.639" width="10" height="10.0278" fill="#7761C3"/>
<rect x="130" y="240.667" width="10" height="10.0278" fill="#7761C3"/>
<rect x="130" y="250.694" width="10" height="10.0278" fill="#9D8ADB"/>
<rect x="130" y="260.722" width="10" height="10.0278" fill="#9D8ADB"/>
<rect x="130" y="270.75" width="10" height="10.0278" fill="#7761C3"/>
<rect x="130" y="280.778" width="10" height="10.0278" fill="#7761C3"/>
<rect x="130" y="290.806" width="10" height="10.0278" fill="#7761C3"/>
<rect x="130" y="300.833" width="10" height="10.0278" fill="#7761C3"/>
<rect x="130" y="310.861" width="10" height="10.0278" fill="#7761C3"/>
<rect x="130" y="320.889" width="10" height="10.0278" fill="#4C4185"/>
<rect x="130" y="330.917" width="10" height="10.0278" fill="#4C4185"/>
<rect x="130" y="340.944" width="10" height="10.0278" fill="#4C4185"/>
<rect x="130" y="350.972" width="10" height="10.0278" fill="black"/>
<rect x="140" y="90.25" width="10" height="10.0278" fill="black"/>
<rect x="140" y="100.278" width="10" height="10.0278" fill="#5EA547"/>
<rect x="140" y="110.306" width="10" height="10.0278" fill="#5EA547"/>
<rect x="140" y="120.333" width="10" height="10.0278" fill="black"/>
<rect x="140" y="150.417" width="10" height="10.0278" fill="black"/>
<rect x="140" y="170.472" width="10" height="10.0278" fill="white"/>
<rect x="140" y="180.5" width="10" height="10.0278" fill="white"/>
<rect x="140" y="190.528" width="10" height="10.0278" fill="white"/>
<rect x="140" y="200.556" width="10" height="10.0278" fill="white"/>
<rect x="140" y="220.611" width="10" height="10.0278" fill="#7761C3"/>
<rect x="140" y="230.639" width="10" height="10.0278" fill="#7761C3"/>
<rect x="140" y="240.667" width="10" height="10.0278" fill="#9D8ADB"/>
<rect x="140" y="250.694" width="10" height="10.0278" fill="#9D8ADB"/>
<rect x="140" y="260.722" width="10" height="10.0278" fill="#9D8ADB"/>
<rect x="140" y="270.75" width="10" height="10.0278" fill="#9D8ADB"/>
<rect x="140" y="280.778" width="10" height="10.0278" fill="#7761C3"/>
<rect x="140" y="290.806" width="10" height="10.0278" fill="#7761C3"/>
<rect x="140" y="300.833" width="10" height="10.0278" fill="#7761C3"/>
<rect x="140" y="310.861" width="10" height="10.0278" fill="#7761C3"/>
<rect x="140" y="320.889" width="10" height="10.0278" fill="#4C4185"/>
<rect x="140" y="330.917" width="10" height="10.0278" fill="#4C4185"/>
<rect x="140" y="340.944" width="10" height="10.0278" fill="#4C4185"/>
<rect x="140" y="350.972" width="10" height="10.0278" fill="black"/>
<rect x="150" y="100.278" width="10" height="10.0278" fill="black"/>
<rect x="150" y="110.306" width="10" height="10.0278" fill="#5EA547"/>
<rect x="150" y="120.333" width="10" height="10.0278" fill="black"/>
<rect x="150" y="170.472" width="10" height="10.0278" fill="black"/>
<rect x="150" y="180.5" width="10" height="10.0278" fill="black"/>
<rect x="150" y="190.528" width="10" height="10.0278" fill="black"/>
<rect x="150" y="200.556" width="10" height="10.0278" fill="black"/>
<rect x="150" y="220.611" width="10" height="10.0278" fill="#7761C3"/>
<rect x="150" y="230.639" width="10" height="10.0278" fill="#7761C3"/>
<rect x="150" y="240.667" width="10" height="10.0278" fill="#9D8ADB"/>
<rect x="150" y="250.694" width="10" height="10.0278" fill="#CEAAEA"/>
<rect x="150" y="260.722" width="10" height="10.0278" fill="#CEAAEA"/>
<rect x="150" y="270.75" width="10" height="10.0278" fill="#9D8ADB"/>
<rect x="150" y="280.778" width="10" height="10.0278" fill="#9D8ADB"/>
<rect x="150" y="290.806" width="10" height="10.0278" fill="#7761C3"/>
<rect x="150" y="300.833" width="10" height="10.0278" fill="#7761C3"/>
<rect x="150" y="310.861" width="10" height="10.0278" fill="#7761C3"/>
<rect x="150" y="320.889" width="10" height="10.0278" fill="#4C4185"/>
<rect x="150" y="330.917" width="10" height="10.0278" fill="#4C4185"/>
<rect x="150" y="340.944" width="10" height="10.0278" fill="#4C4185"/>
<rect x="150" y="350.972" width="10" height="10.0278" fill="black"/>
<rect x="160" y="110.306" width="10" height="10.0278" fill="black"/>
<rect x="160" y="120.333" width="10" height="10.0278" fill="black"/>
<rect x="160" y="170.472" width="10" height="10.0278" fill="black"/>
<rect x="160" y="180.5" width="10" height="10.0278" fill="black"/>
<rect x="160" y="190.528" width="10" height="10.0278" fill="black"/>
<rect x="160" y="200.556" width="10" height="10.0278" fill="black"/>
<rect x="160" y="220.611" width="10" height="10.0278" fill="#7761C3"/>
<rect x="160" y="230.639" width="10" height="10.0278" fill="#7761C3"/>
<rect x="160" y="240.667" width="10" height="10.0278" fill="#9D8ADB"/>
<rect x="160" y="250.694" width="10" height="10.0278" fill="#CEAAEA"/>
<rect x="160" y="260.722" width="10" height="10.0278" fill="#CEAAEA"/>
<rect x="160" y="270.75" width="10" height="10.0278" fill="#9D8ADB"/>
<rect x="160" y="280.778" width="10" height="10.0278" fill="#9D8ADB"/>
<rect x="160" y="290.806" width="10" height="10.0278" fill="#7761C3"/>
<rect x="160" y="300.833" width="10" height="10.0278" fill="#7761C3"/>
<rect x="160" y="310.861" width="10" height="10.0278" fill="#7761C3"/>
<rect x="160" y="320.889" width="10" height="10.0278" fill="#4C4185"/>
<rect x="160" y="330.917" width="10" height="10.0278" fill="#4C4185"/>
<rect x="160" y="340.944" width="10" height="10.0278" fill="black"/>
<rect x="20" y="180.5" width="10" height="10.0278" fill="#61A540"/>
<rect x="20" y="190.528" width="10" height="10.0278" fill="#61A540"/>
<rect x="20" y="200.556" width="10" height="10.0278" fill="#61A540"/>
<rect x="30" y="180.5" width="10" height="10.0278" fill="#61A540"/>
<rect x="40" y="180.5" width="10" height="10.0278" fill="#61A540"/>
<rect x="50" y="160.444" width="10" height="10.0278" fill="#61A540"/>
<rect x="50" y="170.472" width="10" height="10.0278" fill="#61A540"/>
<rect x="50" y="180.5" width="10" height="10.0278" fill="#61A540"/>
<rect x="50" y="190.528" width="10" height="10.0278" fill="#61A540"/>
<rect x="50" y="200.556" width="10" height="10.0278" fill="#61A540"/>
<rect x="50" y="210.583" width="10" height="10.0278" fill="#61A540"/>
<rect x="60" y="160.444" width="10" height="10.0278" fill="#61A540"/>
<rect x="60" y="210.583" width="10" height="10.0278" fill="#61A540"/>
<rect x="70" y="160.444" width="10" height="10.0278" fill="#61A540"/>
<rect x="70" y="210.583" width="10" height="10.0278" fill="#61A540"/>
<rect x="80" y="160.444" width="10" height="10.0278" fill="#61A540"/>
<rect x="80" y="210.583" width="10" height="10.0278" fill="#61A540"/>
<rect x="90" y="160.444" width="10" height="10.0278" fill="#61A540"/>
<rect x="90" y="210.583" width="10" height="10.0278" fill="#61A540"/>
<rect x="100" y="160.444" width="10" height="10.0278" fill="#61A540"/>
<rect x="100" y="170.472" width="10" height="10.0278" fill="#61A540"/>
<rect x="100" y="180.5" width="10" height="10.0278" fill="#61A540"/>
<rect x="100" y="190.528" width="10" height="10.0278" fill="#61A540"/>
<rect x="100" y="200.556" width="10" height="10.0278" fill="#61A540"/>
<rect x="100" y="210.583" width="10" height="10.0278" fill="#61A540"/>
<rect x="110" y="180.5" width="10" height="10.0278" fill="#61A540"/>
<rect x="120" y="160.444" width="10" height="10.0278" fill="#61A540"/>
<rect x="120" y="170.472" width="10" height="10.0278" fill="#61A540"/>
<rect x="120" y="180.5" width="10" height="10.0278" fill="#61A540"/>
<rect x="120" y="190.528" width="10" height="10.0278" fill="#61A540"/>
<rect x="120" y="200.556" width="10" height="10.0278" fill="#61A540"/>
<rect x="120" y="210.583" width="10" height="10.0278" fill="#61A540"/>
<rect x="130" y="160.444" width="10" height="10.0278" fill="#61A540"/>
<rect x="130" y="210.583" width="10" height="10.0278" fill="#61A540"/>
<rect x="140" y="160.444" width="10" height="10.0278" fill="#61A540"/>
<rect x="140" y="210.583" width="10" height="10.0278" fill="#61A540"/>
<rect x="150" y="160.444" width="10" height="10.0278" fill="#61A540"/>
<rect x="150" y="210.583" width="10" height="10.0278" fill="#61A540"/>
<rect x="160" y="160.444" width="10" height="10.0278" fill="#61A540"/>
<rect x="160" y="210.583" width="10" height="10.0278" fill="#61A540"/>
<rect x="170" y="160.444" width="10" height="10.0278" fill="#61A540"/>
<rect x="170" y="170.472" width="10" height="10.0278" fill="#61A540"/>
<rect x="170" y="180.5" width="10" height="10.0278" fill="#61A540"/>
<rect x="170" y="190.528" width="10" height="10.0278" fill="#61A540"/>
<rect x="170" y="200.556" width="10" height="10.0278" fill="#61A540"/>
<rect x="170" y="210.583" width="10" height="10.0278" fill="#61A540"/>
<rect x="170" y="220.611" width="10" height="10.0278" fill="black"/>
<rect x="170" y="230.639" width="10" height="10.0278" fill="#7761C3"/>
<rect x="170" y="240.667" width="10" height="10.0278" fill="#7761C3"/>
<rect x="170" y="250.694" width="10" height="10.0278" fill="#9D8ADB"/>
<rect x="170" y="260.722" width="10" height="10.0278" fill="#9D8ADB"/>
<rect x="170" y="270.75" width="10" height="10.0278" fill="#9D8ADB"/>
<rect x="170" y="280.778" width="10" height="10.0278" fill="#7761C3"/>
<rect x="170" y="290.806" width="10" height="10.0278" fill="#7761C3"/>
<rect x="170" y="300.833" width="10" height="10.0278" fill="#7761C3"/>
<rect x="170" y="310.861" width="10" height="10.0278" fill="#4C4185"/>
<rect x="170" y="320.889" width="10" height="10.0278" fill="#4C4185"/>
<rect x="170" y="330.917" width="10" height="10.0278" fill="#4C4185"/>
<rect x="170" y="340.944" width="10" height="10.0278" fill="black"/>
<rect x="180" y="230.639" width="10" height="10.0278" fill="black"/>
<rect x="180" y="240.667" width="10" height="10.0278" fill="#7761C3"/>
<rect x="180" y="250.694" width="10" height="10.0278" fill="#7761C3"/>
<rect x="180" y="260.722" width="10" height="10.0278" fill="#7761C3"/>
<rect x="180" y="270.75" width="10" height="10.0278" fill="#7761C3"/>
<rect x="180" y="280.778" width="10" height="10.0278" fill="#7761C3"/>
<rect x="180" y="290.806" width="10" height="10.0278" fill="#7761C3"/>
<rect x="180" y="300.833" width="10" height="10.0278" fill="#4C4185"/>
<rect x="180" y="310.861" width="10" height="10.0278" fill="#4C4185"/>
<rect x="180" y="320.889" width="10" height="10.0278" fill="#4C4185"/>
<rect x="180" y="330.917" width="10" height="10.0278" fill="black"/>
<rect x="190" y="240.667" width="10" height="10.0278" fill="black"/>
<rect x="190" y="250.694" width="10" height="10.0278" fill="black"/>
<rect x="190" y="260.722" width="10" height="10.0278" fill="#4C4185"/>
<rect x="190" y="270.75" width="10" height="10.0278" fill="#4C4185"/>
<rect x="190" y="280.778" width="10" height="10.0278" fill="#4C4185"/>
<rect x="190" y="290.806" width="10" height="10.0278" fill="#4C4185"/>
<rect x="190" y="300.833" width="10" height="10.0278" fill="#4C4185"/>
<rect x="190" y="310.861" width="10" height="10.0278" fill="black"/>
<rect x="190" y="320.889" width="10" height="10.0278" fill="black"/>
<rect x="200" y="260.722" width="10" height="10.0278" fill="black"/>
<rect x="200" y="270.75" width="10" height="10.0278" fill="black"/>
<rect x="200" y="280.778" width="10" height="10.0278" fill="black"/>
<rect x="200" y="290.806" width="10" height="10.0278" fill="black"/>
<rect x="200" y="300.833" width="10" height="10.0278" fill="black"/>
</g>
<defs>
<clipPath id="clip0_1_2">
<rect width="210" height="361" fill="white"/>
</clipPath>
</defs>
</svg>
