<svg width="370" height="361" viewBox="0 0 370 361" fill="none" xmlns="http://www.w3.org/2000/svg">
<rect width="370" height="361" fill="white"/>
<rect x="80" y="130.361" width="10" height="10.0278" fill="black"/>
<rect x="80" y="140.389" width="10" height="10.0278" fill="black"/>
<rect x="90" y="110.306" width="10" height="10.0278" fill="black"/>
<rect x="90" y="120.333" width="10" height="10.0278" fill="black"/>
<rect x="90" y="130.361" width="10" height="10.0278" fill="#5EA547"/>
<rect x="90" y="140.389" width="10" height="10.0278" fill="black"/>
<rect x="100" y="100.278" width="10" height="10.0278" fill="black"/>
<rect x="100" y="110.306" width="10" height="10.0278" fill="#5EA547"/>
<rect x="100" y="120.333" width="10" height="10.0278" fill="#5EA547"/>
<rect x="100" y="130.361" width="10" height="10.0278" fill="#8ED133"/>
<rect x="100" y="140.389" width="10" height="10.0278" fill="black"/>
<rect x="110" y="90.25" width="10" height="10.0278" fill="black"/>
<rect x="110" y="100.278" width="10" height="10.0278" fill="#5EA547"/>
<rect x="110" y="110.306" width="10" height="10.0278" fill="#5EA547"/>
<rect x="110" y="120.333" width="10" height="10.0278" fill="#8ED133"/>
<rect x="110" y="130.361" width="10" height="10.0278" fill="#8ED133"/>
<rect x="110" y="140.389" width="10" height="10.0278" fill="black"/>
<rect x="110" y="150.417" width="10" height="10.0278" fill="black"/>
<rect x="110" y="160.444" width="10" height="10.0278" fill="black"/>
<rect x="110" y="170.472" width="10" height="10.0278" fill="black"/>
<rect x="110" y="190.528" width="10" height="10.0278" fill="black"/>
<rect x="110" y="200.556" width="10" height="10.0278" fill="black"/>
<rect x="110" y="210.583" width="10" height="10.0278" fill="black"/>
<rect x="110" y="220.611" width="10" height="10.0278" fill="black"/>
<rect x="110" y="230.639" width="10" height="10.0278" fill="black"/>
<rect x="120" width="10" height="10.0278" fill="black"/>
<rect x="120" y="10.0278" width="10" height="10.0278" fill="black"/>
<rect x="120" y="20.0555" width="10" height="10.0278" fill="black"/>
<rect x="120" y="80.2222" width="10" height="10.0278" fill="black"/>
<rect x="120" y="90.25" width="10" height="10.0278" fill="#4F713B"/>
<rect x="120" y="100.278" width="10" height="10.0278" fill="#4F713B"/>
<rect x="120" y="110.306" width="10" height="10.0278" fill="#8ED133"/>
<rect x="120" y="120.333" width="10" height="10.0278" fill="#8ED133"/>
<rect x="120" y="130.361" width="10" height="10.0278" fill="#8ED133"/>
<rect x="120" y="140.389" width="10" height="10.0278" fill="black"/>
<rect x="120" y="150.417" width="10" height="10.0278" fill="#4C4185"/>
<rect x="120" y="160.444" width="10" height="10.0278" fill="#4C4185"/>
<rect x="120" y="170.472" width="10" height="10.0278" fill="#4C4185"/>
<rect x="120" y="190.528" width="10" height="10.0278" fill="#4C4185"/>
<rect x="120" y="200.556" width="10" height="10.0278" fill="#4C4185"/>
<rect x="120" y="210.583" width="10" height="10.0278" fill="#4C4185"/>
<rect x="120" y="220.611" width="10" height="10.0278" fill="#4C4185"/>
<rect x="120" y="230.639" width="10" height="10.0278" fill="#4C4185"/>
<rect x="120" y="240.667" width="10" height="10.0278" fill="black"/>
<rect x="120" y="250.694" width="10" height="10.0278" fill="black"/>
<rect x="120" y="260.722" width="10" height="10.0278" fill="black"/>
<rect x="120" y="270.75" width="10" height="10.0278" fill="black"/>
<rect x="120" y="280.778" width="10" height="10.0278" fill="black"/>
<rect x="130" width="10" height="10.0278" fill="black"/>
<rect x="130" y="10.0278" width="10" height="10.0278" fill="#5EA547"/>
<rect x="130" y="20.0555" width="10" height="10.0278" fill="#4F713B"/>
<rect x="130" y="30.0833" width="10" height="10.0278" fill="black"/>
<rect x="130" y="70.1944" width="10" height="10.0278" fill="black"/>
<rect x="130" y="80.2222" width="10" height="10.0278" fill="#4F713B"/>
<rect x="130" y="90.25" width="10" height="10.0278" fill="#4F713B"/>
<rect x="130" y="100.278" width="10" height="10.0278" fill="#5EA547"/>
<rect x="130" y="110.306" width="10" height="10.0278" fill="#8ED133"/>
<rect x="130" y="120.333" width="10" height="10.0278" fill="#8ED133"/>
<rect x="130" y="130.361" width="10" height="10.0278" fill="black"/>
<rect x="130" y="140.389" width="10" height="10.0278" fill="#4C4185"/>
<rect x="130" y="150.417" width="10" height="10.0278" fill="#4C4185"/>
<rect x="130" y="220.611" width="10" height="10.0278" fill="#4C4185"/>
<rect x="130" y="230.639" width="10" height="10.0278" fill="#4C4185"/>
<rect x="130" y="240.667" width="10" height="10.0278" fill="#4C4185"/>
<rect x="130" y="250.694" width="10" height="10.0278" fill="#4C4185"/>
<rect x="130" y="260.722" width="10" height="10.0278" fill="#4C4185"/>
<rect x="130" y="270.75" width="10" height="10.0278" fill="#4C4185"/>
<rect x="130" y="280.778" width="10" height="10.0278" fill="#4C4185"/>
<rect x="130" y="290.806" width="10" height="10.0278" fill="black"/>
<rect x="130" y="300.833" width="10" height="10.0278" fill="black"/>
<rect x="140" width="10" height="10.0278" fill="black"/>
<rect x="140" y="10.0278" width="10" height="10.0278" fill="#5EA547"/>
<rect x="140" y="20.0555" width="10" height="10.0278" fill="#5EA547"/>
<rect x="140" y="30.0833" width="10" height="10.0278" fill="#4F713B"/>
<rect x="140" y="40.1111" width="10" height="10.0278" fill="black"/>
<rect x="140" y="70.1944" width="10" height="10.0278" fill="#4F713B"/>
<rect x="140" y="80.2222" width="10" height="10.0278" fill="#4F713B"/>
<rect x="140" y="90.25" width="10" height="10.0278" fill="#5EA547"/>
<rect x="140" y="100.278" width="10" height="10.0278" fill="#5EA547"/>
<rect x="140" y="110.306" width="10" height="10.0278" fill="#5EA547"/>
<rect x="140" y="120.333" width="10" height="10.0278" fill="black"/>
<rect x="140" y="130.361" width="10" height="10.0278" fill="#4C4185"/>
<rect x="140" y="140.389" width="10" height="10.0278" fill="#4C4185"/>
<rect x="140" y="150.417" width="10" height="10.0278" fill="#4C4185"/>
<rect x="140" y="170.472" width="10" height="10.0278" fill="white"/>
<rect x="140" y="180.5" width="10" height="10.0278" fill="white"/>
<rect x="140" y="190.528" width="10" height="10.0278" fill="white"/>
<rect x="140" y="200.556" width="10" height="10.0278" fill="white"/>
<rect x="140" y="220.611" width="10" height="10.0278" fill="#4C4185"/>
<rect x="140" y="230.639" width="10" height="10.0278" fill="#4C4185"/>
<rect x="140" y="240.667" width="10" height="10.0278" fill="#4C4185"/>
<rect x="140" y="250.694" width="10" height="10.0278" fill="#4C4185"/>
<rect x="140" y="260.722" width="10" height="10.0278" fill="#4C4185"/>
<rect x="140" y="270.75" width="10" height="10.0278" fill="#4C4185"/>
<rect x="140" y="280.778" width="10" height="10.0278" fill="#4C4185"/>
<rect x="140" y="290.806" width="10" height="10.0278" fill="#4C4185"/>
<rect x="140" y="300.833" width="10" height="10.0278" fill="#4C4185"/>
<rect x="140" y="310.861" width="10" height="10.0278" fill="black"/>
<rect x="150" y="10.0278" width="10" height="10.0278" fill="black"/>
<rect x="150" y="20.0555" width="10" height="10.0278" fill="#5EA547"/>
<rect x="150" y="30.0833" width="10" height="10.0278" fill="#5EA547"/>
<rect x="150" y="40.1111" width="10" height="10.0278" fill="#4F713B"/>
<rect x="150" y="50.1389" width="10" height="10.0278" fill="black"/>
<rect x="150" y="60.1667" width="10" height="10.0278" fill="black"/>
<rect x="150" y="70.1944" width="10" height="10.0278" fill="#4F713B"/>
<rect x="150" y="80.2222" width="10" height="10.0278" fill="#8ED133"/>
<rect x="150" y="90.25" width="10" height="10.0278" fill="#8ED133"/>
<rect x="150" y="100.278" width="10" height="10.0278" fill="#8ED133"/>
<rect x="150" y="110.306" width="10" height="10.0278" fill="black"/>
<rect x="150" y="120.333" width="10" height="10.0278" fill="#4C4185"/>
<rect x="150" y="130.361" width="10" height="10.0278" fill="#4C4185"/>
<rect x="150" y="140.389" width="10" height="10.0278" fill="#4C4185"/>
<rect x="150" y="150.417" width="10" height="10.0278" fill="#4C4185"/>
<rect x="150" y="170.472" width="10" height="10.0278" fill="white"/>
<rect x="150" y="180.5" width="10" height="10.0278" fill="white"/>
<rect x="150" y="190.528" width="10" height="10.0278" fill="white"/>
<rect x="150" y="200.556" width="10" height="10.0278" fill="white"/>
<rect x="150" y="220.611" width="10" height="10.0278" fill="#7761C3"/>
<rect x="150" y="230.639" width="10" height="10.0278" fill="#7761C3"/>
<rect x="150" y="240.667" width="10" height="10.0278" fill="#7761C3"/>
<rect x="150" y="250.694" width="10" height="10.0278" fill="#7761C3"/>
<rect x="150" y="260.722" width="10" height="10.0278" fill="#7761C3"/>
<rect x="150" y="270.75" width="10" height="10.0278" fill="#4C4185"/>
<rect x="150" y="280.778" width="10" height="10.0278" fill="#4C4185"/>
<rect x="150" y="290.806" width="10" height="10.0278" fill="#4C4185"/>
<rect x="150" y="300.833" width="10" height="10.0278" fill="#4C4185"/>
<rect x="150" y="310.861" width="10" height="10.0278" fill="#4C4185"/>
<rect x="150" y="320.889" width="10" height="10.0278" fill="black"/>
<rect x="160" y="20.0555" width="10" height="10.0278" fill="black"/>
<rect x="160" y="30.0833" width="10" height="10.0278" fill="black"/>
<rect x="160" y="40.1111" width="10" height="10.0278" fill="#5EA547"/>
<rect x="160" y="50.1389" width="10" height="10.0278" fill="#5EA547"/>
<rect x="160" y="60.1667" width="10" height="10.0278" fill="#4F713B"/>
<rect x="160" y="70.1944" width="10" height="10.0278" fill="#8ED133"/>
<rect x="160" y="80.2222" width="10" height="10.0278" fill="#8ED133"/>
<rect x="160" y="90.25" width="10" height="10.0278" fill="#8ED133"/>
<rect x="160" y="100.278" width="10" height="10.0278" fill="#8ED133"/>
<rect x="160" y="110.306" width="10" height="10.0278" fill="#8ED133"/>
<rect x="160" y="120.333" width="10" height="10.0278" fill="#8ED133"/>
<rect x="160" y="130.361" width="10" height="10.0278" fill="black"/>
<rect x="160" y="140.389" width="10" height="10.0278" fill="#4C4185"/>
<rect x="160" y="150.417" width="10" height="10.0278" fill="#4C4185"/>
<rect x="160" y="170.472" width="10" height="10.0278" fill="black"/>
<rect x="160" y="180.5" width="10" height="10.0278" fill="black"/>
<rect x="160" y="190.528" width="10" height="10.0278" fill="black"/>
<rect x="160" y="200.556" width="10" height="10.0278" fill="black"/>
<rect x="160" y="220.611" width="10" height="10.0278" fill="#7761C3"/>
<rect x="160" y="230.639" width="10" height="10.0278" fill="#7761C3"/>
<rect x="160" y="240.667" width="10" height="10.0278" fill="#7761C3"/>
<rect x="160" y="250.694" width="10" height="10.0278" fill="#7761C3"/>
<rect x="160" y="260.722" width="10" height="10.0278" fill="#7761C3"/>
<rect x="160" y="270.75" width="10" height="10.0278" fill="#7761C3"/>
<rect x="160" y="280.778" width="10" height="10.0278" fill="#4C4185"/>
<rect x="160" y="290.806" width="10" height="10.0278" fill="#4C4185"/>
<rect x="160" y="300.833" width="10" height="10.0278" fill="#4C4185"/>
<rect x="160" y="310.861" width="10" height="10.0278" fill="#4C4185"/>
<rect x="160" y="320.889" width="10" height="10.0278" fill="#4C4185"/>
<rect x="160" y="330.917" width="10" height="10.0278" fill="black"/>
<rect x="170" y="40.1111" width="10" height="10.0278" fill="black"/>
<rect x="170" y="50.1389" width="10" height="10.0278" fill="black"/>
<rect x="170" y="60.1667" width="10" height="10.0278" fill="black"/>
<rect x="170" y="70.1944" width="10" height="10.0278" fill="#5EA547"/>
<rect x="170" y="80.2222" width="10" height="10.0278" fill="#4F713B"/>
<rect x="170" y="90.25" width="10" height="10.0278" fill="#4F713B"/>
<rect x="170" y="100.278" width="10" height="10.0278" fill="#5EA547"/>
<rect x="170" y="110.306" width="10" height="10.0278" fill="#8ED133"/>
<rect x="170" y="120.333" width="10" height="10.0278" fill="#8ED133"/>
<rect x="170" y="130.361" width="10" height="10.0278" fill="#8ED133"/>
<rect x="170" y="140.389" width="10" height="10.0278" fill="black"/>
<rect x="170" y="150.417" width="10" height="10.0278" fill="#4C4185"/>
<rect x="170" y="170.472" width="10" height="10.0278" fill="black"/>
<rect x="170" y="180.5" width="10" height="10.0278" fill="black"/>
<rect x="170" y="190.528" width="10" height="10.0278" fill="black"/>
<rect x="170" y="200.556" width="10" height="10.0278" fill="black"/>
<rect x="170" y="220.611" width="10" height="10.0278" fill="#7761C3"/>
<rect x="170" y="230.639" width="10" height="10.0278" fill="#7761C3"/>
<rect x="170" y="240.667" width="10" height="10.0278" fill="#7761C3"/>
<rect x="170" y="250.694" width="10" height="10.0278" fill="#7761C3"/>
<rect x="170" y="260.722" width="10" height="10.0278" fill="#7761C3"/>
<rect x="170" y="270.75" width="10" height="10.0278" fill="#7761C3"/>
<rect x="170" y="280.778" width="10" height="10.0278" fill="#7761C3"/>
<rect x="170" y="290.806" width="10" height="10.0278" fill="#4C4185"/>
<rect x="170" y="300.833" width="10" height="10.0278" fill="#4C4185"/>
<rect x="170" y="310.861" width="10" height="10.0278" fill="#4C4185"/>
<rect x="170" y="320.889" width="10" height="10.0278" fill="#4C4185"/>
<rect x="170" y="330.917" width="10" height="10.0278" fill="#4C4185"/>
<rect x="170" y="340.944" width="10" height="10.0278" fill="black"/>
<rect x="180" y="70.1944" width="10" height="10.0278" fill="black"/>
<rect x="180" y="80.2222" width="10" height="10.0278" fill="#8ED133"/>
<rect x="180" y="90.25" width="10" height="10.0278" fill="#8ED133"/>
<rect x="180" y="100.278" width="10" height="10.0278" fill="#8ED133"/>
<rect x="180" y="110.306" width="10" height="10.0278" fill="#8ED133"/>
<rect x="180" y="120.333" width="10" height="10.0278" fill="black"/>
<rect x="180" y="130.361" width="10" height="10.0278" fill="black"/>
<rect x="180" y="140.389" width="10" height="10.0278" fill="black"/>
<rect x="180" y="150.417" width="10" height="10.0278" fill="#4C4185"/>
<rect x="180" y="220.611" width="10" height="10.0278" fill="#7761C3"/>
<rect x="180" y="230.639" width="10" height="10.0278" fill="#7761C3"/>
<rect x="180" y="240.667" width="10" height="10.0278" fill="#7761C3"/>
<rect x="180" y="250.694" width="10" height="10.0278" fill="#7761C3"/>
<rect x="180" y="260.722" width="10" height="10.0278" fill="#7761C3"/>
<rect x="180" y="270.75" width="10" height="10.0278" fill="#7761C3"/>
<rect x="180" y="280.778" width="10" height="10.0278" fill="#7761C3"/>
<rect x="180" y="290.806" width="10" height="10.0278" fill="#7761C3"/>
<rect x="180" y="300.833" width="10" height="10.0278" fill="#4C4185"/>
<rect x="180" y="310.861" width="10" height="10.0278" fill="#4C4185"/>
<rect x="180" y="320.889" width="10" height="10.0278" fill="#4C4185"/>
<rect x="180" y="330.917" width="10" height="10.0278" fill="#4C4185"/>
<rect x="180" y="340.944" width="10" height="10.0278" fill="black"/>
<rect x="190" y="70.1944" width="10" height="10.0278" fill="black"/>
<rect x="190" y="80.2222" width="10" height="10.0278" fill="#8ED133"/>
<rect x="190" y="90.25" width="10" height="10.0278" fill="#8ED133"/>
<rect x="190" y="100.278" width="10" height="10.0278" fill="#8ED133"/>
<rect x="190" y="110.306" width="10" height="10.0278" fill="black"/>
<rect x="190" y="120.333" width="10" height="10.0278" fill="#4C4185"/>
<rect x="190" y="130.361" width="10" height="10.0278" fill="#4C4185"/>
<rect x="190" y="140.389" width="10" height="10.0278" fill="#4C4185"/>
<rect x="190" y="150.417" width="10" height="10.0278" fill="#7761C3"/>
<rect x="190" y="160.444" width="10" height="10.0278" fill="#7761C3"/>
<rect x="190" y="170.472" width="10" height="10.0278" fill="#7761C3"/>
<rect x="190" y="190.528" width="10" height="10.0278" fill="#7761C3"/>
<rect x="190" y="200.556" width="10" height="10.0278" fill="#7761C3"/>
<rect x="190" y="210.583" width="10" height="10.0278" fill="#7761C3"/>
<rect x="190" y="220.611" width="10" height="10.0278" fill="#7761C3"/>
<rect x="190" y="230.639" width="10" height="10.0278" fill="#7761C3"/>
<rect x="190" y="240.667" width="10" height="10.0278" fill="#7761C3"/>
<rect x="190" y="250.694" width="10" height="10.0278" fill="#7761C3"/>
<rect x="190" y="260.722" width="10" height="10.0278" fill="#7761C3"/>
<rect x="190" y="270.75" width="10" height="10.0278" fill="#7761C3"/>
<rect x="190" y="280.778" width="10" height="10.0278" fill="#7761C3"/>
<rect x="190" y="290.806" width="10" height="10.0278" fill="#7761C3"/>
<rect x="190" y="300.833" width="10" height="10.0278" fill="#7761C3"/>
<rect x="190" y="310.861" width="10" height="10.0278" fill="#4C4185"/>
<rect x="190" y="320.889" width="10" height="10.0278" fill="#4C4185"/>
<rect x="190" y="330.917" width="10" height="10.0278" fill="#4C4185"/>
<rect x="190" y="340.944" width="10" height="10.0278" fill="#4C4185"/>
<rect x="190" y="350.972" width="10" height="10.0278" fill="black"/>
<rect x="200" y="80.2222" width="10" height="10.0278" fill="black"/>
<rect x="200" y="90.25" width="10" height="10.0278" fill="#4F713B"/>
<rect x="200" y="100.278" width="10" height="10.0278" fill="#4F713B"/>
<rect x="200" y="110.306" width="10" height="10.0278" fill="#4C4185"/>
<rect x="200" y="120.333" width="10" height="10.0278" fill="#4C4185"/>
<rect x="200" y="130.361" width="10" height="10.0278" fill="#4C4185"/>
<rect x="200" y="140.389" width="10" height="10.0278" fill="#4C4185"/>
<rect x="200" y="150.417" width="10" height="10.0278" fill="#7761C3"/>
<rect x="200" y="220.611" width="10" height="10.0278" fill="#7761C3"/>
<rect x="200" y="230.639" width="10" height="10.0278" fill="#7761C3"/>
<rect x="200" y="240.667" width="10" height="10.0278" fill="#7761C3"/>
<rect x="200" y="250.694" width="10" height="10.0278" fill="#7761C3"/>
<rect x="200" y="260.722" width="10" height="10.0278" fill="#7761C3"/>
<rect x="200" y="270.75" width="10" height="10.0278" fill="#7761C3"/>
<rect x="200" y="280.778" width="10" height="10.0278" fill="#7761C3"/>
<rect x="200" y="290.806" width="10" height="10.0278" fill="#7761C3"/>
<rect x="200" y="300.833" width="10" height="10.0278" fill="#7761C3"/>
<rect x="200" y="310.861" width="10" height="10.0278" fill="#4C4185"/>
<rect x="200" y="320.889" width="10" height="10.0278" fill="#4C4185"/>
<rect x="200" y="330.917" width="10" height="10.0278" fill="#4C4185"/>
<rect x="200" y="340.944" width="10" height="10.0278" fill="#4C4185"/>
<rect x="200" y="350.972" width="10" height="10.0278" fill="black"/>
<rect x="210" y="90.25" width="10" height="10.0278" fill="black"/>
<rect x="210" y="100.278" width="10" height="10.0278" fill="#5EA547"/>
<rect x="210" y="110.306" width="10" height="10.0278" fill="#4F713B"/>
<rect x="210" y="120.333" width="10" height="10.0278" fill="black"/>
<rect x="210" y="130.361" width="10" height="10.0278" fill="black"/>
<rect x="210" y="140.389" width="10" height="10.0278" fill="black"/>
<rect x="210" y="150.417" width="10" height="10.0278" fill="#4C4185"/>
<rect x="210" y="170.472" width="10" height="10.0278" fill="white"/>
<rect x="210" y="180.5" width="10" height="10.0278" fill="white"/>
<rect x="210" y="190.528" width="10" height="10.0278" fill="white"/>
<rect x="210" y="200.556" width="10" height="10.0278" fill="white"/>
<rect x="210" y="220.611" width="10" height="10.0278" fill="#7761C3"/>
<rect x="210" y="230.639" width="10" height="10.0278" fill="#7761C3"/>
<rect x="210" y="240.667" width="10" height="10.0278" fill="#7761C3"/>
<rect x="210" y="250.694" width="10" height="10.0278" fill="#9D8ADB"/>
<rect x="210" y="260.722" width="10" height="10.0278" fill="#9D8ADB"/>
<rect x="210" y="270.75" width="10" height="10.0278" fill="#7761C3"/>
<rect x="210" y="280.778" width="10" height="10.0278" fill="#7761C3"/>
<rect x="210" y="290.806" width="10" height="10.0278" fill="#7761C3"/>
<rect x="210" y="300.833" width="10" height="10.0278" fill="#7761C3"/>
<rect x="210" y="310.861" width="10" height="10.0278" fill="#7761C3"/>
<rect x="210" y="320.889" width="10" height="10.0278" fill="#4C4185"/>
<rect x="210" y="330.917" width="10" height="10.0278" fill="#4C4185"/>
<rect x="210" y="340.944" width="10" height="10.0278" fill="#4C4185"/>
<rect x="210" y="350.972" width="10" height="10.0278" fill="black"/>
<rect x="220" y="90.25" width="10" height="10.0278" fill="black"/>
<rect x="220" y="100.278" width="10" height="10.0278" fill="#5EA547"/>
<rect x="220" y="110.306" width="10" height="10.0278" fill="#5EA547"/>
<rect x="220" y="120.333" width="10" height="10.0278" fill="black"/>
<rect x="220" y="150.417" width="10" height="10.0278" fill="black"/>
<rect x="220" y="170.472" width="10" height="10.0278" fill="white"/>
<rect x="220" y="180.5" width="10" height="10.0278" fill="white"/>
<rect x="220" y="190.528" width="10" height="10.0278" fill="white"/>
<rect x="220" y="200.556" width="10" height="10.0278" fill="white"/>
<rect x="220" y="220.611" width="10" height="10.0278" fill="#7761C3"/>
<rect x="220" y="230.639" width="10" height="10.0278" fill="#7761C3"/>
<rect x="220" y="240.667" width="10" height="10.0278" fill="#9D8ADB"/>
<rect x="220" y="250.694" width="10" height="10.0278" fill="#9D8ADB"/>
<rect x="220" y="260.722" width="10" height="10.0278" fill="#9D8ADB"/>
<rect x="220" y="270.75" width="10" height="10.0278" fill="#9D8ADB"/>
<rect x="220" y="280.778" width="10" height="10.0278" fill="#7761C3"/>
<rect x="220" y="290.806" width="10" height="10.0278" fill="#7761C3"/>
<rect x="220" y="300.833" width="10" height="10.0278" fill="#7761C3"/>
<rect x="220" y="310.861" width="10" height="10.0278" fill="#7761C3"/>
<rect x="220" y="320.889" width="10" height="10.0278" fill="#4C4185"/>
<rect x="220" y="330.917" width="10" height="10.0278" fill="#4C4185"/>
<rect x="220" y="340.944" width="10" height="10.0278" fill="#4C4185"/>
<rect x="220" y="350.972" width="10" height="10.0278" fill="black"/>
<rect x="230" y="100.278" width="10" height="10.0278" fill="black"/>
<rect x="230" y="110.306" width="10" height="10.0278" fill="#5EA547"/>
<rect x="230" y="120.333" width="10" height="10.0278" fill="black"/>
<rect x="230" y="170.472" width="10" height="10.0278" fill="black"/>
<rect x="230" y="180.5" width="10" height="10.0278" fill="black"/>
<rect x="230" y="190.528" width="10" height="10.0278" fill="black"/>
<rect x="230" y="200.556" width="10" height="10.0278" fill="black"/>
<rect x="230" y="220.611" width="10" height="10.0278" fill="#7761C3"/>
<rect x="230" y="230.639" width="10" height="10.0278" fill="#7761C3"/>
<rect x="230" y="240.667" width="10" height="10.0278" fill="#9D8ADB"/>
<rect x="230" y="250.694" width="10" height="10.0278" fill="#CEAAEA"/>
<rect x="230" y="260.722" width="10" height="10.0278" fill="#CEAAEA"/>
<rect x="230" y="270.75" width="10" height="10.0278" fill="#9D8ADB"/>
<rect x="230" y="280.778" width="10" height="10.0278" fill="#9D8ADB"/>
<rect x="230" y="290.806" width="10" height="10.0278" fill="#7761C3"/>
<rect x="230" y="300.833" width="10" height="10.0278" fill="#7761C3"/>
<rect x="230" y="310.861" width="10" height="10.0278" fill="#7761C3"/>
<rect x="230" y="320.889" width="10" height="10.0278" fill="#4C4185"/>
<rect x="230" y="330.917" width="10" height="10.0278" fill="#4C4185"/>
<rect x="230" y="340.944" width="10" height="10.0278" fill="#4C4185"/>
<rect x="230" y="350.972" width="10" height="10.0278" fill="black"/>
<rect x="240" y="110.306" width="10" height="10.0278" fill="black"/>
<rect x="240" y="120.333" width="10" height="10.0278" fill="black"/>
<rect x="240" y="170.472" width="10" height="10.0278" fill="black"/>
<rect x="240" y="180.5" width="10" height="10.0278" fill="black"/>
<rect x="240" y="190.528" width="10" height="10.0278" fill="black"/>
<rect x="240" y="200.556" width="10" height="10.0278" fill="black"/>
<rect x="240" y="220.611" width="10" height="10.0278" fill="#7761C3"/>
<rect x="240" y="230.639" width="10" height="10.0278" fill="#7761C3"/>
<rect x="240" y="240.667" width="10" height="10.0278" fill="#9D8ADB"/>
<rect x="240" y="250.694" width="10" height="10.0278" fill="#CEAAEA"/>
<rect x="240" y="260.722" width="10" height="10.0278" fill="#CEAAEA"/>
<rect x="240" y="270.75" width="10" height="10.0278" fill="#9D8ADB"/>
<rect x="240" y="280.778" width="10" height="10.0278" fill="#9D8ADB"/>
<rect x="240" y="290.806" width="10" height="10.0278" fill="#7761C3"/>
<rect x="240" y="300.833" width="10" height="10.0278" fill="#7761C3"/>
<rect x="240" y="310.861" width="10" height="10.0278" fill="#7761C3"/>
<rect x="240" y="320.889" width="10" height="10.0278" fill="#4C4185"/>
<rect x="240" y="330.917" width="10" height="10.0278" fill="#4C4185"/>
<rect x="240" y="340.944" width="10" height="10.0278" fill="black"/>
<rect x="100" y="180.5" width="10" height="10.0278" fill="#61A540"/>
<rect x="100" y="190.528" width="10" height="10.0278" fill="#61A540"/>
<rect x="100" y="200.556" width="10" height="10.0278" fill="#61A540"/>
<rect x="110" y="180.5" width="10" height="10.0278" fill="#61A540"/>
<rect x="120" y="180.5" width="10" height="10.0278" fill="#61A540"/>
<rect x="130" y="160.444" width="10" height="10.0278" fill="#61A540"/>
<rect x="130" y="170.472" width="10" height="10.0278" fill="#61A540"/>
<rect x="130" y="180.5" width="10" height="10.0278" fill="#61A540"/>
<rect x="130" y="190.528" width="10" height="10.0278" fill="#61A540"/>
<rect x="130" y="200.556" width="10" height="10.0278" fill="#61A540"/>
<rect x="130" y="210.583" width="10" height="10.0278" fill="#61A540"/>
<rect x="140" y="160.444" width="10" height="10.0278" fill="#61A540"/>
<rect x="140" y="210.583" width="10" height="10.0278" fill="#61A540"/>
<rect x="150" y="160.444" width="10" height="10.0278" fill="#61A540"/>
<rect x="150" y="210.583" width="10" height="10.0278" fill="#61A540"/>
<rect x="160" y="160.444" width="10" height="10.0278" fill="#61A540"/>
<rect x="160" y="210.583" width="10" height="10.0278" fill="#61A540"/>
<rect x="170" y="160.444" width="10" height="10.0278" fill="#61A540"/>
<rect x="170" y="210.583" width="10" height="10.0278" fill="#61A540"/>
<rect x="180" y="160.444" width="10" height="10.0278" fill="#61A540"/>
<rect x="180" y="170.472" width="10" height="10.0278" fill="#61A540"/>
<rect x="180" y="180.5" width="10" height="10.0278" fill="#61A540"/>
<rect x="180" y="190.528" width="10" height="10.0278" fill="#61A540"/>
<rect x="180" y="200.556" width="10" height="10.0278" fill="#61A540"/>
<rect x="180" y="210.583" width="10" height="10.0278" fill="#61A540"/>
<rect x="190" y="180.5" width="10" height="10.0278" fill="#61A540"/>
<rect x="200" y="160.444" width="10" height="10.0278" fill="#61A540"/>
<rect x="200" y="170.472" width="10" height="10.0278" fill="#61A540"/>
<rect x="200" y="180.5" width="10" height="10.0278" fill="#61A540"/>
<rect x="200" y="190.528" width="10" height="10.0278" fill="#61A540"/>
<rect x="200" y="200.556" width="10" height="10.0278" fill="#61A540"/>
<rect x="200" y="210.583" width="10" height="10.0278" fill="#61A540"/>
<rect x="210" y="160.444" width="10" height="10.0278" fill="#61A540"/>
<rect x="210" y="210.583" width="10" height="10.0278" fill="#61A540"/>
<rect x="220" y="160.444" width="10" height="10.0278" fill="#61A540"/>
<rect x="220" y="210.583" width="10" height="10.0278" fill="#61A540"/>
<rect x="230" y="160.444" width="10" height="10.0278" fill="#61A540"/>
<rect x="230" y="210.583" width="10" height="10.0278" fill="#61A540"/>
<rect x="240" y="160.444" width="10" height="10.0278" fill="#61A540"/>
<rect x="240" y="210.583" width="10" height="10.0278" fill="#61A540"/>
<rect x="250" y="160.444" width="10" height="10.0278" fill="#61A540"/>
<rect x="250" y="170.472" width="10" height="10.0278" fill="#61A540"/>
<rect x="250" y="180.5" width="10" height="10.0278" fill="#61A540"/>
<rect x="250" y="190.528" width="10" height="10.0278" fill="#61A540"/>
<rect x="250" y="200.556" width="10" height="10.0278" fill="#61A540"/>
<rect x="250" y="210.583" width="10" height="10.0278" fill="#61A540"/>
<rect x="250" y="220.611" width="10" height="10.0278" fill="black"/>
<rect x="250" y="230.639" width="10" height="10.0278" fill="#7761C3"/>
<rect x="250" y="240.667" width="10" height="10.0278" fill="#7761C3"/>
<rect x="250" y="250.694" width="10" height="10.0278" fill="#9D8ADB"/>
<rect x="250" y="260.722" width="10" height="10.0278" fill="#9D8ADB"/>
<rect x="250" y="270.75" width="10" height="10.0278" fill="#9D8ADB"/>
<rect x="250" y="280.778" width="10" height="10.0278" fill="#7761C3"/>
<rect x="250" y="290.806" width="10" height="10.0278" fill="#7761C3"/>
<rect x="250" y="300.833" width="10" height="10.0278" fill="#7761C3"/>
<rect x="250" y="310.861" width="10" height="10.0278" fill="#4C4185"/>
<rect x="250" y="320.889" width="10" height="10.0278" fill="#4C4185"/>
<rect x="250" y="330.917" width="10" height="10.0278" fill="#4C4185"/>
<rect x="250" y="340.944" width="10" height="10.0278" fill="black"/>
<rect x="260" y="230.639" width="10" height="10.0278" fill="black"/>
<rect x="260" y="240.667" width="10" height="10.0278" fill="#7761C3"/>
<rect x="260" y="250.694" width="10" height="10.0278" fill="#7761C3"/>
<rect x="260" y="260.722" width="10" height="10.0278" fill="#7761C3"/>
<rect x="260" y="270.75" width="10" height="10.0278" fill="#7761C3"/>
<rect x="260" y="280.778" width="10" height="10.0278" fill="#7761C3"/>
<rect x="260" y="290.806" width="10" height="10.0278" fill="#7761C3"/>
<rect x="260" y="300.833" width="10" height="10.0278" fill="#4C4185"/>
<rect x="260" y="310.861" width="10" height="10.0278" fill="#4C4185"/>
<rect x="260" y="320.889" width="10" height="10.0278" fill="#4C4185"/>
<rect x="260" y="330.917" width="10" height="10.0278" fill="black"/>
<rect x="270" y="240.667" width="10" height="10.0278" fill="black"/>
<rect x="270" y="250.694" width="10" height="10.0278" fill="black"/>
<rect x="270" y="260.722" width="10" height="10.0278" fill="#4C4185"/>
<rect x="270" y="270.75" width="10" height="10.0278" fill="#4C4185"/>
<rect x="270" y="280.778" width="10" height="10.0278" fill="#4C4185"/>
<rect x="270" y="290.806" width="10" height="10.0278" fill="#4C4185"/>
<rect x="270" y="300.833" width="10" height="10.0278" fill="#4C4185"/>
<rect x="270" y="310.861" width="10" height="10.0278" fill="black"/>
<rect x="270" y="320.889" width="10" height="10.0278" fill="black"/>
<rect x="280" y="260.722" width="10" height="10.0278" fill="black"/>
<rect x="280" y="270.75" width="10" height="10.0278" fill="black"/>
<rect x="280" y="280.778" width="10" height="10.0278" fill="black"/>
<rect x="280" y="290.806" width="10" height="10.0278" fill="black"/>
<rect x="280" y="300.833" width="10" height="10.0278" fill="black"/>
</svg>
